# xmcd
#
# Track frame offsets:
#	150
#	22051
#	39632
#	72699
#	78509
#	126911
#	137904
#	156543
#	171381
#	189739
#	214879
#	244641
#	262654
#	265850
#
# Disc length: 3987 seconds
#
# Revision: 0
# Processed by: cddbd v1.5.2PL0 Copyright (c) Steve Scherf et al.
# Submitted via: EasyCDDAExtractor 10.0.3.1
#
DISCID=d80f910e
DTITLE=Al Kooper and Friends - Live at the Roxy Theatre in LA
DYEAR=1987
DGENRE=Blues
TTITLE0=Goin' Down Louisianna
TTITLE1=I Feel Good
TTITLE2=You Don't Love Me
TTITLE3=Intro Bencmont Tench
TTITLE4=Red House
TTITLE5=Jackson Browne Intro
TTITLE6=When A Man Loves A Woman
TTITLE7=The Great Pretender
TTITLE8=The Harder They Come
TTITLE9=Feelin' Alright
TTITLE10=Stormy Monday
TTITLE11=All Along The Watchtower
TTITLE12=Stephen Stills Intro
TTITLE13=Dear My Fantasy
EXTD=
EXTT0=
EXTT1=
EXTT2=
EXTT3=
EXTT4=
EXTT5=
EXTT6=
EXTT7=
EXTT8=
EXTT9=
EXTT10=
EXTT11=
EXTT12=
EXTT13=
PLAYORDER=
